<svg width="400" height="100" viewBox="0 0 400 100" fill="none" xmlns="http://www.w3.org/2000/svg">
<rect width="400" height="100" fill="#rgba(124,240,10,0.5)"/>
<path d="M351.902 74.225C349.536 74.225 347.336 73.7917 345.302 72.925C343.302 72.0584 341.569 70.8584 340.103 69.325C338.669 67.7584 337.619 65.9417 336.953 63.875L342.603 61.425C343.503 63.5584 344.803 65.2417 346.503 66.475C348.203 67.675 350.119 68.275 352.253 68.275C353.453 68.275 354.486 68.0917 355.353 67.725C356.253 67.325 356.936 66.7917 357.402 66.125C357.902 65.4584 358.152 64.6584 358.152 63.725C358.152 62.625 357.819 61.725 357.152 61.025C356.519 60.2917 355.553 59.725 354.253 59.325L347.103 57.025C344.203 56.125 342.019 54.775 340.552 52.975C339.086 51.175 338.353 49.0584 338.353 46.625C338.353 44.4917 338.869 42.6084 339.902 40.975C340.969 39.3417 342.436 38.075 344.302 37.175C346.202 36.2417 348.369 35.775 350.802 35.775C353.036 35.775 355.086 36.175 356.953 36.975C358.819 37.7417 360.419 38.825 361.753 40.225C363.119 41.5917 364.136 43.2084 364.802 45.075L359.203 47.575C358.469 45.7084 357.369 44.275 355.902 43.275C354.436 42.2417 352.736 41.725 350.802 41.725C349.669 41.725 348.669 41.925 347.802 42.325C346.936 42.6917 346.253 43.225 345.753 43.925C345.286 44.5917 345.052 45.3917 345.052 46.325C345.052 47.3584 345.386 48.275 346.052 49.075C346.719 49.8417 347.736 50.4417 349.103 50.875L355.953 53.025C358.919 53.9917 361.136 55.325 362.603 57.025C364.103 58.725 364.853 60.825 364.853 63.325C364.853 65.4584 364.303 67.3417 363.203 68.975C362.103 70.6084 360.586 71.8917 358.652 72.825C356.719 73.7584 354.469 74.225 351.902 74.225Z" fill="white"/>
<path d="M307.382 74.225C304.715 74.225 302.249 73.7417 299.982 72.775C297.749 71.8084 295.782 70.4584 294.082 68.725C292.415 66.9917 291.115 64.9584 290.182 62.625C289.249 60.2917 288.782 57.7417 288.782 54.975C288.782 52.2084 289.232 49.6584 290.132 47.325C291.065 44.9584 292.365 42.925 294.032 41.225C295.732 39.4917 297.715 38.1584 299.982 37.225C302.249 36.2584 304.715 35.775 307.382 35.775C310.049 35.775 312.432 36.225 314.532 37.125C316.665 38.025 318.465 39.225 319.932 40.725C321.399 42.1917 322.449 43.8084 323.082 45.575L316.982 48.425C316.282 46.5584 315.099 45.025 313.432 43.825C311.765 42.5917 309.749 41.975 307.382 41.975C305.049 41.975 302.982 42.525 301.182 43.625C299.415 44.725 298.032 46.2417 297.032 48.175C296.065 50.1084 295.582 52.375 295.582 54.975C295.582 57.575 296.065 59.8584 297.032 61.825C298.032 63.7584 299.415 65.275 301.182 66.375C302.982 67.475 305.049 68.025 307.382 68.025C309.749 68.025 311.765 67.425 313.432 66.225C315.099 64.9917 316.282 63.4417 316.982 61.575L323.082 64.425C322.449 66.1917 321.399 67.825 319.932 69.325C318.465 70.7917 316.665 71.975 314.532 72.875C312.432 73.775 310.049 74.225 307.382 74.225Z" fill="white"/>
<path d="M255.945 73.625L242.945 36.375H250.345L260.545 67.225H259.095L269.295 36.375H276.695L263.745 73.625H255.945Z" fill="white"/>
<path d="M216.922 74.225C214.555 74.225 212.355 73.7917 210.322 72.925C208.322 72.0584 206.589 70.8584 205.122 69.325C203.689 67.7584 202.639 65.9417 201.972 63.875L207.622 61.425C208.522 63.5584 209.822 65.2417 211.522 66.475C213.222 67.675 215.139 68.275 217.272 68.275C218.472 68.275 219.505 68.0917 220.372 67.725C221.272 67.325 221.955 66.7917 222.422 66.125C222.922 65.4584 223.172 64.6584 223.172 63.725C223.172 62.625 222.839 61.725 222.172 61.025C221.539 60.2917 220.572 59.725 219.272 59.325L212.122 57.025C209.222 56.125 207.039 54.775 205.572 52.975C204.105 51.175 203.372 49.0584 203.372 46.625C203.372 44.4917 203.889 42.6084 204.922 40.975C205.989 39.3417 207.455 38.075 209.322 37.175C211.222 36.2417 213.389 35.775 215.822 35.775C218.055 35.775 220.105 36.175 221.972 36.975C223.839 37.7417 225.439 38.825 226.772 40.225C228.139 41.5917 229.155 43.2084 229.822 45.075L224.222 47.575C223.489 45.7084 222.389 44.275 220.922 43.275C219.455 42.2417 217.755 41.725 215.822 41.725C214.689 41.725 213.689 41.925 212.822 42.325C211.955 42.6917 211.272 43.225 210.772 43.925C210.305 44.5917 210.072 45.3917 210.072 46.325C210.072 47.3584 210.405 48.275 211.072 49.075C211.739 49.8417 212.755 50.4417 214.122 50.875L220.972 53.025C223.939 53.9917 226.155 55.325 227.622 57.025C229.122 58.725 229.872 60.825 229.872 63.325C229.872 65.4584 229.322 67.3417 228.222 68.975C227.122 70.6084 225.605 71.8917 223.672 72.825C221.739 73.7584 219.489 74.225 216.922 74.225Z" fill="white"/>
<path d="M175.962 74.225C173.395 74.225 171.112 73.6917 169.112 72.625C167.112 71.525 165.545 70.0417 164.412 68.175C163.279 66.3083 162.712 64.2083 162.712 61.875C162.712 60.7083 162.829 59.5417 163.062 58.375C163.295 57.2083 163.762 55.925 164.462 54.525C165.162 53.125 166.212 51.525 167.612 49.725L177.962 36.375H187.212L174.662 52.425L173.412 50.675C173.879 50.4417 174.329 50.2583 174.762 50.125C175.195 49.9917 175.612 49.8917 176.012 49.825C176.445 49.7583 176.895 49.725 177.362 49.725C179.662 49.725 181.695 50.2417 183.462 51.275C185.262 52.3083 186.662 53.725 187.662 55.525C188.695 57.2917 189.212 59.2917 189.212 61.525C189.212 63.9583 188.645 66.1417 187.512 68.075C186.379 69.975 184.812 71.475 182.812 72.575C180.845 73.675 178.562 74.225 175.962 74.225ZM175.962 67.225C176.995 67.225 177.912 66.9917 178.712 66.525C179.545 66.0583 180.212 65.4083 180.712 64.575C181.212 63.7083 181.462 62.725 181.462 61.625C181.462 60.4917 181.212 59.525 180.712 58.725C180.212 57.8917 179.545 57.2417 178.712 56.775C177.912 56.3083 176.995 56.075 175.962 56.075C174.962 56.075 174.045 56.3083 173.212 56.775C172.379 57.2417 171.712 57.8917 171.212 58.725C170.712 59.525 170.462 60.4917 170.462 61.625C170.462 62.725 170.712 63.7083 171.212 64.575C171.712 65.4083 172.379 66.0583 173.212 66.525C174.045 66.9917 174.962 67.225 175.962 67.225Z" fill="white"/>
<path d="M125.513 73.625L138.063 57.575L139.313 59.325C138.846 59.525 138.396 59.7084 137.963 59.875C137.563 60.0084 137.146 60.1084 136.713 60.175C136.279 60.2417 135.829 60.275 135.363 60.275C133.063 60.275 131.013 59.7584 129.213 58.725C127.446 57.6917 126.046 56.2917 125.013 54.525C124.013 52.725 123.513 50.7084 123.513 48.475C123.513 46.0084 124.079 43.825 125.213 41.925C126.346 40.025 127.913 38.525 129.913 37.425C131.913 36.325 134.196 35.775 136.763 35.775C139.363 35.775 141.646 36.325 143.613 37.425C145.613 38.4917 147.179 39.9584 148.313 41.825C149.446 43.6584 150.013 45.7584 150.013 48.125C150.013 49.2917 149.896 50.4584 149.663 51.625C149.429 52.7917 148.963 54.075 148.263 55.475C147.563 56.8417 146.513 58.4417 145.113 60.275L134.763 73.625H125.513ZM136.763 53.925C137.796 53.925 138.713 53.6917 139.513 53.225C140.346 52.7584 141.013 52.1084 141.513 51.275C142.013 50.4417 142.263 49.475 142.263 48.375C142.263 47.2417 142.013 46.2584 141.513 45.425C141.013 44.5917 140.346 43.9417 139.513 43.475C138.713 43.0084 137.796 42.775 136.763 42.775C135.763 42.775 134.846 43.0084 134.013 43.475C133.179 43.9417 132.513 44.5917 132.013 45.425C131.513 46.2584 131.263 47.2417 131.263 48.375C131.263 49.475 131.513 50.4417 132.013 51.275C132.513 52.1084 133.179 52.7584 134.013 53.225C134.846 53.6917 135.763 53.925 136.763 53.925Z" fill="white"/>
<path d="M94.153 74.225C91.1863 74.225 88.5696 73.425 86.303 71.825C84.0696 70.225 82.3196 67.975 81.053 65.075C79.7863 62.175 79.153 58.8084 79.153 54.975C79.153 51.1084 79.7696 47.7417 81.003 44.875C82.2696 42.0084 84.0196 39.775 86.253 38.175C88.5196 36.575 91.1363 35.775 94.103 35.775C97.1363 35.775 99.7696 36.575 102.003 38.175C104.27 39.775 106.02 42.025 107.253 44.925C108.52 47.7917 109.153 51.1417 109.153 54.975C109.153 58.8084 108.52 62.175 107.253 65.075C106.02 67.9417 104.27 70.1917 102.003 71.825C99.7696 73.425 97.153 74.225 94.153 74.225ZM94.203 67.225C95.7363 67.225 97.0363 66.7417 98.103 65.775C99.1696 64.8084 99.9863 63.4084 100.553 61.575C101.12 59.7417 101.403 57.5417 101.403 54.975C101.403 52.4084 101.12 50.225 100.553 48.425C99.9863 46.5917 99.153 45.1917 98.053 44.225C96.9863 43.2584 95.6696 42.775 94.103 42.775C92.5696 42.775 91.2696 43.2584 90.203 44.225C89.1363 45.1917 88.3196 46.5917 87.753 48.425C87.1863 50.225 86.903 52.4084 86.903 54.975C86.903 57.5084 87.1863 59.6917 87.753 61.525C88.3196 63.3584 89.1363 64.775 90.203 65.775C91.303 66.7417 92.6363 67.225 94.203 67.225Z" fill="white"/>
<path d="M51.6475 73.625V65.625H35.1475V59.125L51.1475 36.375H59.3975V59.125H65.1475V65.625H59.3975V73.625H51.6475ZM40.7975 61.925L39.3475 59.125H51.6475V42.375L53.5975 42.975L40.7975 61.925Z" fill="white"/>
<path d="M33 21H367V27H33V21Z" fill="url(#paint0_linear_4_35)"/>
<path d="M33 21H367V27H33V21Z" fill="url(#paint1_linear_4_35)"/>
<path d="M33 21H69V27H33V21Z" fill="url(#paint2_linear_4_35)"/>
<defs>
<linearGradient id="paint0_linear_4_35" x1="33" y1="24" x2="367" y2="24" gradientUnits="userSpaceOnUse">
<stop offset="0.45" stop-color="white" stop-opacity="0.4"/>
<stop offset="1" stop-color="white"/>
</linearGradient>
<linearGradient id="paint1_linear_4_35" x1="33" y1="24" x2="367" y2="24" gradientUnits="userSpaceOnUse">
<stop offset="0.45" stop-color="white" stop-opacity="0.4"/>
<stop offset="1" stop-color="white"/>
</linearGradient>
<linearGradient id="paint2_linear_4_35" x1="33" y1="24" x2="69" y2="24" gradientUnits="userSpaceOnUse">
<stop stop-color="white"/>
<stop offset="1" stop-color="white" stop-opacity="0.4"/>
</linearGradient>
</defs>
</svg>
