<?xml version="1.0" encoding="UTF-8" standalone="no"?>
<!-- Created with Inkscape (http://www.inkscape.org/) -->

<svg
   width="215.265mm"
   height="103.74313mm"
   viewBox="0 0 215.265 103.74313"
   version="1.1"
   id="svg5"
   inkscape:version="1.1.2 (b8e25be833, 2022-02-05)"
   sodipodi:docname="BLAST.tv 2022.svg"
   xmlns:inkscape="http://www.inkscape.org/namespaces/inkscape"
   xmlns:sodipodi="http://sodipodi.sourceforge.net/DTD/sodipodi-0.dtd"
   xmlns="http://www.w3.org/2000/svg"
   xmlns:svg="http://www.w3.org/2000/svg">
  <sodipodi:namedview
     id="namedview7"
     pagecolor="#ffffff"
     bordercolor="#666666"
     borderopacity="1.0"
     inkscape:pageshadow="2"
     inkscape:pageopacity="0.0"
     inkscape:pagecheckerboard="0"
     inkscape:document-units="mm"
     showgrid="false"
     inkscape:zoom="0.64052329"
     inkscape:cx="650.24958"
     inkscape:cy="432.45891"
     inkscape:window-width="1920"
     inkscape:window-height="1017"
     inkscape:window-x="-8"
     inkscape:window-y="-8"
     inkscape:window-maximized="1"
     inkscape:current-layer="layer1" />
  <defs
     id="defs2" />
  <g
     inkscape:label="Layer 1"
     inkscape:groupmode="layer"
     id="layer1"
     transform="translate(66.738197,-34.04777)">
    <g
       id="g882"
       transform="matrix(0.26458333,0,0,0.26458333,-120.50153,30.687562)"
       style="fill:#ffffff;fill-opacity:1">
      <g
         id="g842"
         style="fill:#ffffff;fill-opacity:1">
        <path
           class="st0"
           d="m 232.2,265.3 h 59.5 c 20.3,0 37.2,14.5 37.2,34.1 0,13.4 -7.9,25.8 -20.3,33.3 7.6,5.2 12.2,13.8 12.2,24.6 0,24 -22.9,44.6 -49.8,44.6 h -67.8 z m 26.3,80.6 -4.8,23.3 h 8.5 c 10.3,0 16.3,-4.8 16.3,-12.4 0,-7.2 -5.2,-10.9 -13,-10.9 z m 10.3,-47.8 -4.5,21.3 h 7.7 c 9.5,0 14.7,-4.6 14.7,-11.8 0,-6.4 -4.1,-9.5 -11.4,-9.5 z"
           id="path826"
           style="fill:#ffffff;fill-opacity:1" />
        <path
           class="st0"
           d="m 371.7,367.2 h 34.9 l -7.4,34.7 h -78.5 l 29.1,-136.6 h 43.6 z"
           id="path828"
           style="fill:#fffffff;fill-opacity:1" />
        <path
           class="st0"
           d="m 499.9,385.8 h -43.4 l -8.1,16.1 h -41.9 l 75,-136.6 h 44 l 16.9,136.6 h -41.1 z m -3.1,-34.9 -3.5,-39.1 -19.6,39.1 z"
           id="path830"
           style="fill:#ffffff;fill-opacity:1" />
        <path
           class="st0"
           d="m 619.9,262.4 c 10.5,0 21.5,2.1 28.3,5.2 l -7.6,35.5 c -4.1,-3.1 -11.4,-5.4 -17.4,-5.4 -7.2,0 -12,3.3 -12,8.7 0,12.6 24.4,20.7 24.4,49.4 0,28.9 -22.9,49 -54.8,49 -12.2,0 -25.4,-2.9 -31.6,-7.4 l 7.6,-35.5 c 5.4,4.3 14.3,7.6 20.5,7.6 7.9,0 14.5,-5.2 14.5,-11.6 0,-12.6 -24.4,-20.7 -24.4,-49.4 0,-27.3 21.7,-46.1 52.5,-46.1 z"
           id="path832"
           style="fill:#ffffff;fill-opacity:1" />
        <path
           class="st0"
           d="M 659.6,265.3 H 761.3 L 754,300 H 724.9 L 703.2,401.9 H 659.6 L 681.3,300 h -29.1 z"
           id="path834"
           style="fill:#ffffff;fill-opacity:1" />
        <path
           class="st0"
           d="m 753.8,359.5 c 12.4,0 21.1,8.1 21.1,20.3 0,14.1 -11.4,25 -25.4,25 -12.4,0 -21.1,-8.1 -21.1,-20.3 0,-14.2 11.4,-25 25.4,-25 z"
           id="path836"
           style="fill:#ffffff;fill-opacity:1" />
        <path
           class="st0"
           d="M 791.4,265.3 H 893.1 L 885.7,300 H 856.6 L 835,401.9 H 791.4 L 813.1,300 H 784 Z"
           id="path838"
           style="fill:#ffffff;fill-opacity:1" />
        <path
           class="st0"
           d="m 953.7,401.9 h -46.9 l -7,-136.6 h 41.1 l 1.7,77.3 33.7,-77.3 h 40.5 z"
           id="path840"
           style="fill:#ffffff;fill-opacity:1" />
      </g>
      <path
         class="st2"
         d="m 617.4,12.7 -21,43.8 67,52.1 z m -20.4,96.7 11.4,23.8 41.1,-3.7 -6.6,-13.7 -67,-52.1 -36.3,75.8 44.9,-4.1 z m 65.6,36.7 36.4,76 H 521 l 31.6,-66 44.9,-4.1 -15.2,31.6 h 55.2 l -16.2,-33.8 z"
         id="path856"
         style="fill:#ffffff;fill-opacity:1" />
    </g>
  </g>
  <style
     type="text/css"
     id="style824">
	.st0{fill:#ffffff;}
	.st1{fill:#FFFFFF;}
	.st2{fill-rule:evenodd;clip-rule:evenodd;fill:#ffffff;}
</style>
</svg>
